<?xml version="1.0" encoding="UTF-8" standalone="no"?>
<svg width="28px" height="24px" viewBox="0 0 28 24" version="1.1" xmlns="http://www.w3.org/2000/svg" xmlns:xlink="http://www.w3.org/1999/xlink">
    <!-- Generator: Sketch 3.7 (28169) - http://www.bohemiancoding.com/sketch -->
    <title>Logo</title>
    <desc>Created with Sketch.</desc>
    <defs></defs>
    <g id="Page-1" stroke="none" stroke-width="1" fill="none" fill-rule="evenodd">
        <g id="JQuery-Project" transform="translate(-97.000000, -266.000000)" fill="#FFFFFF">
            <g id="Primary-Nav">
                <path d="M124.555556,290 L124.555556,283.851852 L122.962963,283.851852 L122.962963,272.148148 L124.37037,272.074074 L124.37037,266 L116,266 L110.851852,275.037037 L105.592593,266 L97,266 L97,272.111111 L98.5925926,272.111111 L98.5925926,283.962963 L97.0740741,284.037037 L97.0740741,290 L106.074074,290 L106.074074,279.851852 C106.34568,280.271607 106.61111,280.666665 106.87037,281.037037 C107.129631,281.407409 107.39506,281.802467 107.666667,282.222222 C107.913581,282.592594 108.191356,283.012343 108.5,283.481481 C108.808644,283.95062 109.117282,284.425924 109.425926,284.907407 C109.734569,285.388891 110.043208,285.864195 110.351852,286.333333 C110.660495,286.802471 110.93827,287.22222 111.185185,287.592593 L115.592593,279.814815 L115.592593,290 L124.555556,290 Z" id="Logo"></path>
            </g>
        </g>
    </g>
</svg>